<?xml version="1.0" encoding="utf-8"?>
<!-- Generator: Adobe Illustrator 23.0.1, SVG Export Plug-In . SVG Version: 6.00 Build 0)  -->
<svg version="1.1" id="Calque_1" xmlns="http://www.w3.org/2000/svg" xmlns:xlink="http://www.w3.org/1999/xlink" x="0px" y="0px"
	 viewBox="0 0 281 296" style="enable-background:new 0 0 281 296;" xml:space="preserve">
<style type="text/css">
	.st0{clip-path:url(#SVGID_2_);}
	.st1{clip-path:url(#SVGID_4_);fill:#EDEDED;}
</style>
<g>
	<defs>
		<path id="SVGID_1_" d="M89.6,165.4c-2.1-5.1,3.3-13.1,7.2-17.3c7.7-8.1,19.8-15.7,33.5-20.4c10.3-3.6,20.7-5.5,30.2-5.5
			c13,0,22.8,4,25.1,9.6c2.4,5.9-4.4,14.2-7.2,17.3c-7.7,8.2-19.9,15.7-33.5,20.4c-10.3,3.6-20.7,5.5-30.2,5.5
			C101.7,175,92,171,89.6,165.4 M151.4,188c16.8-5.9,31.5-15,41.4-25.6c4.5-4.8,17.2-20.4,17.2-45.6c0-12.8-4-26.2-12.9-37.5
			c-11.9-15.2-42.3-37.5-112-15.6L91,82.4c43.2-13.6,75.4-10.4,90.6,9c4.2,5.3,6.7,11.4,7.9,17.6c-7.6-4.1-17.5-6.4-29-6.4
			c-11.6,0-24.3,2.3-36.7,6.6c-16.8,5.9-31.5,15-41.4,25.6c-4.5,4.8-17.2,20.3-17.2,45c0,13,3.8,26.6,12.9,38.1
			c8.3,10.7,25.7,24.8,59.3,24.8c14.4,0,31.8-2.6,52.7-9.2l-5.9-18.7c-43.2,13.6-75.4,10.4-90.6-9c-4.2-5.3-6.7-11.4-7.9-17.6
			c7.6,4.1,17.5,6.4,29,6.4C126.4,194.6,139.1,192.3,151.4,188z M281,148c0,77.6-62.9,140.5-140.5,140.5C62.9,288.5,0,225.6,0,148
			C0,70.4,62.9,7.5,140.5,7.5C218.1,7.5,281,70.4,281,148z"/>
	</defs>
	<use xlink:href="#SVGID_1_"  style="overflow:visible;fill-rule:evenodd;clip-rule:evenodd;fill:#EDEDED;"/>
	<clipPath id="SVGID_2_">
		<use xlink:href="#SVGID_1_"  style="overflow:visible;"/>
	</clipPath>
	<g class="st0">
		<defs>
			<rect id="SVGID_3_" x="-69.1" y="8" width="416.1" height="438.3"/>
		</defs>
		<use xlink:href="#SVGID_3_"  style="overflow:visible;fill:#EDEDED;"/>
		<clipPath id="SVGID_4_">
			<use xlink:href="#SVGID_3_"  style="overflow:visible;"/>
		</clipPath>
		<rect x="-7.4" y="0.1" class="st1" width="295.8" height="295.8"/>
	</g>
</g>
</svg>
