<svg id="Calque_1" data-name="Calque 1" xmlns="http://www.w3.org/2000/svg" viewBox="0 0 24 24"><defs><style>.cls-1{fill:#fff;}</style></defs><title>Plan de travail 1</title><path class="cls-1" d="M1.53.35V2.4H1.06v-2Z"/><path class="cls-1" d="M3.49.35V2.4H3.14L2.35,1.28V2.4H1.88v-2h.35L3,1.46V.35Z"/><path class="cls-1" d="M5.22.8H4.7V2.4H4.23V.8H3.7V.35H5.22Z"/><path class="cls-1" d="M6.12,1.72H5.9V2.4H5.43v-2h.82a.7.7,0,0,1,.7.7.66.66,0,0,1-.38.59L7,2.4h-.5ZM5.9,1.31h.35a.24.24,0,0,0,.23-.26A.24.24,0,0,0,6.25.79H5.9Z"/><path class="cls-1" d="M8.43,2.07H7.67l-.1.33H7.05l.7-2h.6l.7,2.05H8.54Zm-.14-.43L8.05.88l-.24.76Z"/><path class="cls-1" d="M10.72,1.05a.71.71,0,0,1-.72.7H9.69V2.4H9.22v-2H10A.71.71,0,0,1,10.72,1.05Zm-.47,0A.25.25,0,0,0,10,.79H9.69v.52H10A.25.25,0,0,0,10.25,1.05Z"/><path class="cls-1" d="M11.64,1.72h-.22V2.4H11v-2h.82a.7.7,0,0,1,.71.7.68.68,0,0,1-.38.59l.44.76H12Zm-.22-.41h.35A.25.25,0,0,0,12,1.05a.25.25,0,0,0-.24-.26h-.35Z"/><path class="cls-1" d="M14.05,2V2.4H12.76v-2H14V.8h-.81v.34H14v.44h-.74V2Z"/><path class="cls-1" d="M15.92.35V2.4h-.35l-.79-1.12V2.4h-.47v-2h.35l.79,1.11V.35Z"/><path class="cls-1" d="M17.56,2V2.4H16.27v-2h1.28V.8h-.81v.34h.73v.44h-.73V2Z"/><path class="cls-1" d="M17.81,1.73V.35h.47V1.69c0,.16.07.29.32.29s.32-.13.32-.29V.35h.47V1.73a.79.79,0,0,1-1.58,0Z"/><path class="cls-1" d="M20.42,1.72H20.2V2.4h-.47v-2h.82a.7.7,0,0,1,.71.7.68.68,0,0,1-.38.59l.43.76h-.5Zm-.22-.41h.35a.25.25,0,0,0,.24-.26.25.25,0,0,0-.24-.26H20.2Z"/><path class="cls-1" d="M21.4,1.93l.41-.23a.42.42,0,0,0,.43.28c.22,0,.28-.09.28-.17s-.12-.17-.43-.26-.6-.23-.6-.62A.64.64,0,0,1,22.18.3a.81.81,0,0,1,.75.47l-.4.23a.36.36,0,0,0-.35-.24C22,.76,22,.84,22,.92s.05.16.36.25.66.2.66.64-.31.63-.76.63A.82.82,0,0,1,21.4,1.93Z"/><path class="cls-1" d="M9.41,4.4l0,.12h0l.12,0c.07,0,.1.12.07.19a.22.22,0,0,1-.09.1.54.54,0,0,1-.27.07,1.13,1.13,0,0,1-.18,0,.13.13,0,0,1-.08,0,.12.12,0,0,1,0-.11A.71.71,0,0,1,9,4.6l0-.16C9,4.23,9.1,4,9.17,3.8a2.83,2.83,0,0,1,.21-.55,2,2,0,0,1,.18-.32l.06-.07s0,0,.06,0,.08,0,.08.06a.17.17,0,0,1,0,.07c-.07.29-.14.58-.2.88S9.46,4.21,9.41,4.4Z"/><path class="cls-1" d="M10.81,4.17a.78.78,0,0,1-.15.1,1.31,1.31,0,0,1-.27.06l-.3,0,0,0,.05,0h0a.44.44,0,0,0,.3,0h0a.13.13,0,0,1,.18.15.22.22,0,0,1-.15.19l-.08,0a.66.66,0,0,1-.31,0,.42.42,0,0,1-.16,0l-.1-.07a.53.53,0,0,1-.19-.34A.52.52,0,0,1,9.84,4a.84.84,0,0,1,.65-.29.45.45,0,0,1,.2,0,.37.37,0,0,1,.15.13A.25.25,0,0,1,10.81,4.17ZM10.53,4l-.06,0a.46.46,0,0,0-.45.24v0l.26-.1.2-.1Z"/><path class="cls-1" d="M11.8,4.55a.18.18,0,0,0,0,.06.25.25,0,0,1-.14.3c-.06,0-.14,0-.14,0l-.08,0a.9.9,0,0,1-.28,0c-.19,0-.28-.2-.27-.37a1,1,0,0,1,0-.24A1.55,1.55,0,0,1,11.07,4a.59.59,0,0,1,.46-.32h.13s.26,0,.3.09a.39.39,0,0,1,0,.26Zm-.18-.64,0,0c-.25,0-.4.21-.45.46a.11.11,0,0,0,.07.12.3.3,0,0,0,.24,0C11.51,4.26,11.57,4.09,11.62,3.91Z"/><path class="cls-1" d="M13.09,3.74v0a5,5,0,0,0-.11.56,4.69,4.69,0,0,1-.19.76,2.14,2.14,0,0,1-.21.43,1,1,0,0,1-.28.31.48.48,0,0,1-.23.1.37.37,0,0,1-.37-.25.23.23,0,0,1,.16-.27.14.14,0,0,1,.19.1.08.08,0,0,0,0,0l0,0a.7.7,0,0,0,.2-.22,2.26,2.26,0,0,0,.19-.42h-.12A.37.37,0,0,1,12,4.47a.72.72,0,0,1,.07-.33,1,1,0,0,1,.52-.48.48.48,0,0,1,.17-.05.42.42,0,0,1,.16,0l.05,0A.1.1,0,0,1,13.09,3.74Zm-.32.14,0-.08a.27.27,0,0,0-.12,0,.87.87,0,0,0-.34.32.49.49,0,0,0-.06.17.29.29,0,0,0,0,.13.11.11,0,0,0,.08.09.34.34,0,0,0,.22,0c0-.12.06-.24.1-.36Z"/><path class="cls-1" d="M13.46,4.45c.1-.19.2-.38.31-.56a1.62,1.62,0,0,1,.1-.18A.24.24,0,0,1,14,3.63a.17.17,0,0,1,.18.19.31.31,0,0,1,0,.08L14,4.31a1.41,1.41,0,0,1-.21.38.81.81,0,0,1-.16.16.38.38,0,0,1-.49,0,.43.43,0,0,1-.09-.22.88.88,0,0,1,0-.32.83.83,0,0,1,0-.15,2.64,2.64,0,0,1,.23-.44l0-.05s0,0,.06,0a.05.05,0,0,1,0,.05.13.13,0,0,1,0,.06,2.45,2.45,0,0,1-.08.29,2.63,2.63,0,0,0-.06.39s0,.09,0,.13Z"/><path class="cls-1" d="M15.32,4.17a.78.78,0,0,1-.15.1,1.31,1.31,0,0,1-.27.06l-.3,0,0,0,0,0h0a.44.44,0,0,0,.3,0h0a.13.13,0,0,1,.18.15.22.22,0,0,1-.15.19l-.08,0a.66.66,0,0,1-.31,0,.42.42,0,0,1-.16,0l-.1-.07a.49.49,0,0,1-.19-.34A.52.52,0,0,1,14.35,4,.84.84,0,0,1,15,3.67a.45.45,0,0,1,.2,0,.37.37,0,0,1,.15.13A.25.25,0,0,1,15.32,4.17ZM15,4,15,4a.46.46,0,0,0-.45.24v0l.26-.1L15,4S15,4,15,4Z"/><path class="cls-1" d="M22.84,4.7H16.21a.14.14,0,1,1,0-.28h6.63a.14.14,0,0,1,0,.28Z"/><path class="cls-1" d="M7.82,4.7H1.19a.14.14,0,1,1,0-.28H7.82a.14.14,0,0,1,0,.28Z"/><path class="cls-1" d="M11.39,24.05c-2.35,0-4.33-2.19-5.08-3.14C4.07,18.06,2.36,13.58,1.23,7.6a.94.94,0,0,1,.91-1.1l19.72-.1a.94.94,0,0,1,.72.33,1,1,0,0,1,.21.75A38.74,38.74,0,0,1,20,17c-2.17,4.67-5,7-8.49,7h-.12ZM2.15,7a.43.43,0,0,0-.35.17.42.42,0,0,0-.1.37c1.11,5.91,2.79,10.32,5,13.11s4.06,3,4.79,2.95c3.28,0,6-2.26,8.09-6.76A38.21,38.21,0,0,0,22.32,7.4a.47.47,0,0,0-.1-.36.44.44,0,0,0-.35-.16Z"/><path class="cls-1" d="M9,12.83H8.84a.19.19,0,0,1-.19-.19.2.2,0,0,1,.19-.19c.89,0,1.45-.16,1.56-.52.17-.52-.5-1.47-1.61-2.26a.18.18,0,0,1,0-.26A.19.19,0,0,1,9,9.36c1.06.76,2,1.89,1.75,2.69C10.59,12.57,10,12.83,9,12.83Z"/><path class="cls-1" d="M14.77,12.66h0c-1.1,0-1.74-.31-1.9-.85-.23-.82.77-1.9,1.86-2.62a.19.19,0,0,1,.26.05.2.2,0,0,1-.05.27c-1.14.74-1.85,1.66-1.7,2.19.1.36.65.57,1.54.58a.18.18,0,0,1,.18.2A.18.18,0,0,1,14.77,12.66Z"/><path class="cls-1" d="M13.43,10.65a.18.18,0,0,1-.12-.05,2.28,2.28,0,0,0-3.08-.06.18.18,0,0,1-.26,0,.17.17,0,0,1,0-.26,2.65,2.65,0,0,1,3.55.06.19.19,0,0,1-.12.34Z"/><path class="cls-1" d="M11.76,19.71a6.6,6.6,0,0,1-2.54-.52A.2.2,0,0,1,9.1,19a.22.22,0,0,1,.14-.18,12.05,12.05,0,0,0,2.31-.95,3.77,3.77,0,0,1-1.8-2.25,2,2,0,0,1-.47,0,5.92,5.92,0,0,1-2.84-1.36,3,3,0,0,1-1.19-2.45.19.19,0,0,1,.3-.13c1.06.83,2.27,1.7,3.22,1.59a.19.19,0,0,1,.21.17.2.2,0,0,1-.17.21c-1,.11-2.1-.61-3.18-1.43.17,1.41,2,2.75,3.71,3l.32,0a5.61,5.61,0,0,1,0-1.59.16.16,0,0,1,0-.1.29.29,0,0,1,.38,0,1.61,1.61,0,0,1,.5,1.58.77.77,0,0,1-.47.45,3.56,3.56,0,0,0,1.81,2.09,3.53,3.53,0,0,0,1.7-2.18.71.71,0,0,1-.48-.42,1.6,1.6,0,0,1,.42-1.61.28.28,0,0,1,.37,0,.24.24,0,0,1,.06.11,5.34,5.34,0,0,1,.06,1.58,1.87,1.87,0,0,0,.32,0c1.68-.37,3.46-1.79,3.57-3.21-1,.87-2.11,1.65-3.11,1.58a.19.19,0,1,1,0-.38c1,.06,2.12-.86,3.14-1.74a.18.18,0,0,1,.19,0,.19.19,0,0,1,.12.15A3,3,0,0,1,17.22,14a5.89,5.89,0,0,1-2.77,1.5,2.79,2.79,0,0,1-.46,0,3.85,3.85,0,0,1-1.69,2.34,12.25,12.25,0,0,0,2.36.83.2.2,0,0,1,.14.21.19.19,0,0,1-.16.16A7.09,7.09,0,0,1,11.76,19.71ZM9.87,19A6.15,6.15,0,0,0,14,18.92a11.13,11.13,0,0,1-2.08-.82A11.08,11.08,0,0,1,9.87,19ZM10,14a4.77,4.77,0,0,0,0,1.2.37.37,0,0,0,.2-.24A1.28,1.28,0,0,0,10,14Zm3.66-.09a1.32,1.32,0,0,0-.19,1,.37.37,0,0,0,.22.22A4.87,4.87,0,0,0,13.66,13.9Z"/><path class="cls-1" d="M11.87,12.8a.19.19,0,0,1-.18-.14l-.1-.33a.2.2,0,0,1,0-.13l.1-.24a.17.17,0,0,1,.17-.12h0a.2.2,0,0,1,.18.12l.09.24a.17.17,0,0,1,0,.12l-.1.34a.18.18,0,0,1-.18.14Z"/></svg>