<svg xmlns="http://www.w3.org/2000/svg" viewBox="0 0 231.24 247.53"><defs><style>.cls-1{fill:#295c7a;}.cls-2{fill:#7a6ea0;}</style></defs><title>IL-BLEU</title><g id="Calque_2" data-name="Calque 2"><g id="Calque_2-2" data-name="Calque 2"><path class="cls-1" d="M5.49.43V22H.56V.43Z"/><path class="cls-1" d="M26.1.43V22H22.41L14.1,10.27V22H9.18V.43h3.69l8.31,11.69V.43Z"/><path class="cls-1" d="M44.25,5.17H38.71V22H33.79V5.17H28.25V.43h16Z"/><path class="cls-1" d="M53.66,14.89H51.32V22H46.4V.43H55A7.36,7.36,0,0,1,62.4,7.81a7.1,7.1,0,0,1-4,6.25L63,22H57.72Zm-2.34-4.31H55a2.61,2.61,0,0,0,2.46-2.77A2.61,2.61,0,0,0,55,5h-3.7Z"/><path class="cls-1" d="M77.93,18.58h-8L68.86,22H63.48L70.8.43h6.27L84.39,22H79ZM76.46,14,73.93,6.06,71.41,14Z"/><path class="cls-1" d="M101.93,7.81a7.41,7.41,0,0,1-7.54,7.39H91.16V22H86.24V.43h8.15A7.4,7.4,0,0,1,101.93,7.81ZM97,7.81A2.63,2.63,0,0,0,94.39,5H91.16v5.54h3.23A2.63,2.63,0,0,0,97,7.81Z"/><path class="cls-1" d="M111.65,14.89h-2.34V22h-4.92V.43H113a7.36,7.36,0,0,1,7.39,7.38,7.1,7.1,0,0,1-4,6.25L121,22h-5.29Zm-2.34-4.31H113a2.61,2.61,0,0,0,2.47-2.77A2.61,2.61,0,0,0,113,5h-3.69Z"/><path class="cls-1" d="M136.85,17.23V22H123.31V.43h13.38V5.17h-8.46V8.74h7.69v4.67h-7.69v3.82Z"/><path class="cls-1" d="M156.53.43V22h-3.69l-8.3-11.69V22h-4.93V.43h3.7l8.3,11.69V.43Z"/><path class="cls-1" d="M173.76,17.23V22H160.23V.43h13.38V5.17h-8.46V8.74h7.69v4.67h-7.69v3.82Z"/><path class="cls-1" d="M176.38,15V.43h4.92V14.58c0,1.63.77,3,3.38,3s3.39-1.39,3.39-3V.43H193V15c0,4.62-3.57,7.38-8.31,7.38S176.38,19.63,176.38,15Z"/><path class="cls-1" d="M203.79,14.89h-2.34V22h-4.92V.43h8.61a7.36,7.36,0,0,1,7.38,7.38,7.09,7.09,0,0,1-4,6.25l4.58,7.9h-5.29Zm-2.34-4.31h3.69a2.61,2.61,0,0,0,2.46-2.77A2.61,2.61,0,0,0,205.14,5h-3.69Z"/><path class="cls-1" d="M214.06,17.07l4.25-2.46a4.51,4.51,0,0,0,4.52,3c2.34,0,2.92-.93,2.92-1.76,0-1.32-1.23-1.84-4.46-2.74S215,10.67,215,6.55,218.46,0,222.18,0a8.36,8.36,0,0,1,7.88,4.86l-4.15,2.43a3.78,3.78,0,0,0-3.73-2.49c-1.53,0-2.3.77-2.3,1.63s.52,1.66,3.87,2.68,6.93,2.12,6.93,6.67c0,4.15-3.33,6.61-8,6.61S215.26,20.24,214.06,17.07Z"/><path class="cls-1" d="M86.48,40.15c-.09.42-.21.84-.33,1.26a4.83,4.83,0,0,1,.48.06c.42.09.87.15,1.29.21.78.12,1,1.23.72,2.06a2.08,2.08,0,0,1-1,1,6.22,6.22,0,0,1-2.79.72c-.66-.08-1.29-.18-1.92-.29a2.2,2.2,0,0,1-.81-.37,1.39,1.39,0,0,1-.51-1.19c-.06-.48-.06-1-.09-1.48.12-.56.24-1.1.39-1.61.63-2.29,1.23-4.53,1.92-6.78A40.09,40.09,0,0,1,86.09,28,24.88,24.88,0,0,1,88,24.61a6,6,0,0,1,.66-.81,1.79,1.79,0,0,1,.63-.42.67.67,0,0,1,.87.66,3.26,3.26,0,0,1-.12.78c-.72,3.09-1.44,6.15-2.16,9.24C87.41,36.07,87,38.11,86.48,40.15Z"/><path class="cls-1" d="M101.27,37.66a4.83,4.83,0,0,1-1.65,1.05,9.25,9.25,0,0,1-2.82.69c-2.28.3-3,.38-3.21.42l.36.33c.18.15.36.3.54.48a0,0,0,0,1,0,0,4.56,4.56,0,0,0,3.09.08c.21,0,.39-.17.57-.21a1.46,1.46,0,0,1,1.92,1.65,2.61,2.61,0,0,1-1.65,2c-.27.12-.54.21-.81.31a7.68,7.68,0,0,1-3.27.29,5.59,5.59,0,0,1-1.68-.41,3.66,3.66,0,0,1-1-.73,5.36,5.36,0,0,1-2-3.59A5.59,5.59,0,0,1,91,35.5a8.73,8.73,0,0,1,6.93-3.09,5.08,5.08,0,0,1,2.1.45,3.85,3.85,0,0,1,1.56,1.29A2.66,2.66,0,0,1,101.27,37.66Zm-3-2c-.24-.12-.42-.27-.6-.27a4.89,4.89,0,0,0-4.71,2.52c0,.06,0,.18,0,.24.93-.36,1.86-.69,2.76-1.08.69-.3,1.35-.66,2-1C97.85,36,98,35.8,98.24,35.62Z"/><path class="cls-1" d="M111.68,41.74a3.24,3.24,0,0,0-.12.57,2.63,2.63,0,0,1-1.44,3.2c-.63.27-1.5-.33-1.5-.33a7.42,7.42,0,0,1-.84-.5,17.54,17.54,0,0,1-2.94.21c-2.07-.06-2.94-2.11-2.82-4a10.13,10.13,0,0,1,.48-2.52,17.86,17.86,0,0,1,1.44-3.06A6.48,6.48,0,0,1,108.86,32a3.84,3.84,0,0,1,1.32,0s2.73.09,3.18,1c.39.78,0,1.83-.24,2.73C112.64,37.72,112.16,39.72,111.68,41.74ZM109.79,35c-.15-.12-.21-.21-.24-.21-2.61-.12-4.2,2.19-4.68,4.86a1,1,0,0,0,.66,1.2,3,3,0,0,0,2.52-.39C108.62,38.59,109.22,36.79,109.79,35Z"/><path class="cls-1" d="M125.27,33.13a.51.51,0,0,1,0,.21,48.84,48.84,0,0,0-1.17,6,56.86,56.86,0,0,1-2,8,23.73,23.73,0,0,1-2.22,4.56,12.12,12.12,0,0,1-2.94,3.24,5.11,5.11,0,0,1-2.43,1.08,3.76,3.76,0,0,1-3.87-2.64,2.32,2.32,0,0,1,1.68-2.88,1.43,1.43,0,0,1,2,1,3.19,3.19,0,0,1,.09.42c.21-.12.36-.18.48-.27a8.3,8.3,0,0,0,2.1-2.37,23.49,23.49,0,0,0,2-4.47c-.48,0-.87-.06-1.26-.06a4,4,0,0,1-3.93-4.13,7.28,7.28,0,0,1,.75-3.48,10.76,10.76,0,0,1,5.46-5.1,6.34,6.34,0,0,1,1.8-.45,2.58,2.58,0,0,1,1.65.42,1.38,1.38,0,0,1,.51-.27A1,1,0,0,1,125.27,33.13Zm-3.33,1.5c.09-.27.21-.57.33-.84a2.54,2.54,0,0,0-1.32.33,8.39,8.39,0,0,0-3.57,3.36,6.25,6.25,0,0,0-.66,1.76,4.52,4.52,0,0,0,0,1.42,1.2,1.2,0,0,0,.9,1,3.94,3.94,0,0,0,2.25.06c.36-1.29.69-2.55,1-3.81Q121.4,36.25,121.94,34.63Z"/><path class="cls-1" d="M129.17,40.6c1.08-2,2.16-3.93,3.27-5.91.33-.6.72-1.23,1.11-1.83a1.94,1.94,0,0,1,1.53-.84A1.77,1.77,0,0,1,137,33.94a5.21,5.21,0,0,1-.21.87c-.51,1.47-1,2.91-1.59,4.38a17.2,17.2,0,0,1-2.25,4,7.2,7.2,0,0,1-1.68,1.67,4,4,0,0,1-5.1-.42,3.57,3.57,0,0,1-1-2.27,10,10,0,0,1,.36-3.4,10.72,10.72,0,0,1,.51-1.64,24.78,24.78,0,0,1,2.4-4.59,4.29,4.29,0,0,1,.42-.6.58.58,0,0,1,.66-.18.51.51,0,0,1,.39.54,2.56,2.56,0,0,1-.09.69c-.27,1-.54,2-.81,3a17.57,17.57,0,0,0-.69,4.14,2,2,0,0,0,.24,1.34Z"/><path class="cls-1" d="M148.88,37.66a4.83,4.83,0,0,1-1.65,1.05,9.25,9.25,0,0,1-2.82.69c-2.28.3-3,.38-3.21.42l.36.33c.18.15.36.3.54.48a0,0,0,0,1,0,0,4.56,4.56,0,0,0,3.09.08c.21,0,.39-.17.57-.21a1.46,1.46,0,0,1,1.92,1.65,2.61,2.61,0,0,1-1.65,2c-.27.12-.54.21-.81.31a7.68,7.68,0,0,1-3.27.29,5.59,5.59,0,0,1-1.68-.41,3.66,3.66,0,0,1-1.05-.73,5.36,5.36,0,0,1-2-3.59,5.59,5.59,0,0,1,1.32-4.53,8.73,8.73,0,0,1,6.93-3.09,5.08,5.08,0,0,1,2.1.45,3.85,3.85,0,0,1,1.56,1.29A2.66,2.66,0,0,1,148.88,37.66Zm-3-2c-.24-.12-.42-.27-.6-.27a4.89,4.89,0,0,0-4.71,2.52c0,.06,0,.18,0,.24.93-.36,1.86-.69,2.76-1.08.69-.3,1.35-.66,2-1C145.46,36,145.61,35.8,145.85,35.62Z"/><line class="cls-2" x1="159.74" y1="41.78" x2="229.74" y2="41.78"/><path class="cls-1" d="M229.74,43.28h-70a1.5,1.5,0,0,1,0-3h70a1.5,1.5,0,0,1,0,3Z"/><line class="cls-2" x1="1.5" y1="41.78" x2="71.5" y2="41.78"/><path class="cls-1" d="M71.5,43.28H1.5a1.5,1.5,0,0,1,0-3h70a1.5,1.5,0,0,1,0,3Z"/><path class="cls-1" d="M109.12,247.53c-24.84,0-45.73-23.08-53.63-33.1C31.79,184.35,13.75,137.06,1.86,73.88a9.83,9.83,0,0,1,9.61-11.62l208.21-1a9.8,9.8,0,0,1,9.74,11.36c-2.75,17.17-11.13,61.33-29.43,100.64-23,49.28-53.11,74.27-89.64,74.27h-1.23ZM11.49,67.26A4.83,4.83,0,0,0,6.78,73c11.73,62.37,29.44,108.93,52.64,138.38C82,240,102.34,242.71,110,242.52h.27c34.48,0,63.12-24,85.17-71.38,18-38.74,26.31-82.36,29-99.32a4.76,4.76,0,0,0-1.09-3.88,4.83,4.83,0,0,0-3.67-1.69h0Z"/><path class="cls-1" d="M85.81,129.15H84.55a2,2,0,1,1,.08-4c9.4.18,15.23-1.79,16.46-5.53,1.82-5.49-5.35-15.51-17-23.84a2,2,0,0,1,2.32-3.26c11.23,8,21.31,19.88,18.51,28.36C103.08,126.36,96.66,129.15,85.81,129.15Z"/><path class="cls-1" d="M147.24,127.32h0c-11.61-.22-18.35-3.26-20-9-2.48-8.58,8.05-20.06,19.58-27.63A2,2,0,0,1,149,94c-12,7.88-19.53,17.63-17.93,23.18,1.09,3.79,6.86,6,16.24,6.14a2,2,0,0,1,0,4Z"/><path class="cls-1" d="M133,106.05a2,2,0,0,1-1.3-.48c-10.15-8.63-22-8.86-32.46-.61a2,2,0,0,1-2.47-3.15c11.93-9.38,26-9.12,37.52.72a2,2,0,0,1-1.29,3.52Z"/><path class="cls-1" d="M115.46,201.73a70.22,70.22,0,0,1-26.85-5.48,2,2,0,0,1,.16-3.76,130,130,0,0,0,24.4-10c-10.15-6.3-16.33-14.05-19-23.76a24,24,0,0,1-4.92-.35,61.49,61.49,0,0,1-30-14.41c-9-8-13.43-17.12-12.62-25.77a2,2,0,0,1,3.22-1.4c11.18,8.71,23.95,17.92,34,16.74a2,2,0,0,1,.45,4c-10.49,1.2-22.25-6.39-33.59-15,1.84,14.91,21.35,29,39.2,31.94a21.62,21.62,0,0,0,3.38.32A57.49,57.49,0,0,1,93.16,138a2,2,0,0,1,.54-1.14,3,3,0,0,1,4-.28c3.13,2,7.59,10.56,5.27,16.68A7.85,7.85,0,0,1,98,158c2.4,8.41,8.07,15.81,19.07,22.13,10.67-6.85,16-14.51,18-23a7.86,7.86,0,0,1-5.11-4.49c-2.62-6,1.43-14.81,4.45-16.92a3,3,0,0,1,4,.09,2,2,0,0,1,.59,1.11,57.83,57.83,0,0,1,.68,16.72,23.36,23.36,0,0,0,3.36-.48c17.68-3.82,36.49-18.82,37.61-33.8-10.91,9.18-22.28,17.37-32.83,16.63a2,2,0,0,1,.27-4c10.06.66,22.37-9.13,33.11-18.36a2,2,0,0,1,2-.36,2,2,0,0,1,1.28,1.6c1.22,8.6-2.81,18-11.36,26.35A61.5,61.5,0,0,1,143.85,157a23.27,23.27,0,0,1-4.89.58c-2.2,9.84-8,17.87-17.83,24.66A129.75,129.75,0,0,0,146,191.11a2,2,0,0,1-.14,3.9A75.92,75.92,0,0,1,115.46,201.73Zm-20-7.22c14.5,4.73,28.63,4.36,43.71-1.13a117.44,117.44,0,0,1-22-8.59A117.74,117.74,0,0,1,95.45,194.51Zm1.37-53.14A51,51,0,0,0,97.14,154a4,4,0,0,0,2.14-2.49C100.28,148.24,98.41,143.69,96.82,141.37Zm38.65-.94c-1.47,2.4-3.12,7-2,10.27a4,4,0,0,0,2.26,2.39A51,51,0,0,0,135.47,140.43Z"/><path class="cls-1" d="M116.59,128.77a2,2,0,0,1-1.93-1.45l-1-3.53a1.94,1.94,0,0,1,.07-1.28l1-2.56a2,2,0,0,1,1.86-1.26h0a2,2,0,0,1,1.86,1.27l1,2.53a2,2,0,0,1,.06,1.27l-1,3.55a2,2,0,0,1-1.92,1.46Z"/></g></g></svg>