<svg xmlns="http://www.w3.org/2000/svg" xmlns:xlink="http://www.w3.org/1999/xlink" viewBox="0 0 527.4 199.78"><defs>
  <style>
    .cls-logo-saegus-1,
    .cls-logo-saegus-2{fill:none;}
    .cls-logo-saegus-1{clip-rule:evenodd;}
    .cls-logo-saegus-3{clip-path:url(#clip-path-saegus-logo);}
    .cls-logo-saegus-4{clip-path:url(#clip-path-saegus-logo-2);}
    .cls-logo-saegus-5{fill:#fff;}
    .cls-logo-saegus-6{clip-path:url(#clip-path-saegus-logo-3);}
    .cls-logo-saegus-7{clip-path:url(#clip-path-saegus-logo-4);}
    .cls-logo-saegus-8{clip-path:url(#clip-path-saegus-logo-5);}
    .cls-logo-saegus-9{clip-path:url(#clip-path-saegus-logo-7);}
    .cls-logo-saegus-10{clip-path:url(#clip-path-saegus-logo-9);}
    .cls-logo-saegus-11{clip-path:url(#clip-path-saegus-logo-11);}
  </style>
  
  
  <clipPath id="clip-path-saegus-logo" transform="translate(-41.69 -155.23)"><path class="cls-logo-saegus-1" d="M107.22,266.85c-1.42-3.43,2.22-8.86,4.89-11.66,5.21-5.5,13.4-10.58,22.61-13.8a62.62,62.62,0,0,1,20.39-3.72c8.8,0,15.41,2.68,17,6.48,1.65,4-3,9.6-4.89,11.66-5.16,5.55-13.4,10.58-22.61,13.8a63,63,0,0,1-20.39,3.72c-8.8,0-15.41-2.69-17-6.48M149,282.11c11.33-4,21.25-10.1,27.93-17.27A45.18,45.18,0,0,0,188.49,234a41,41,0,0,0-8.69-25.32c-8.06-10.3-28.59-25.36-75.64-10.55l4,12.64c29.2-9.2,50.95-7.05,61.22,6.07a27.71,27.71,0,0,1,5.3,11.88c-5.12-2.79-11.78-4.33-19.56-4.33a76.22,76.22,0,0,0-24.77,4.46c-11.33,4-21.25,10.1-27.93,17.28a44.7,44.7,0,0,0-11.59,30.37,41.59,41.59,0,0,0,8.69,25.76C105.15,309.5,116.9,319,139.57,319c9.72,0,21.46-1.76,35.57-6.2l-4-12.64c-29.21,9.2-50.95,7.05-61.22-6.07a27.77,27.77,0,0,1-5.31-11.89c5.13,2.79,11.79,4.34,19.57,4.34A76.24,76.24,0,0,0,149,282.11Zm87.5-27a94.89,94.89,0,1,1-94.89-94.89A94.89,94.89,0,0,1,236.47,255.12Z"/></clipPath><clipPath id="clip-path-saegus-logo-2" transform="translate(-41.69 -155.23)"><rect class="cls-logo-saegus-2" y="160.54" width="281" height="296"/></clipPath><clipPath id="clip-path-saegus-logo-3" transform="translate(-41.69 -155.23)"><path class="cls-logo-saegus-1" d="M496,280.58c-14.21,0-23.77-9.38-23.77-23.34V228.7h9.36v28.54c0,9,5.52,14.23,14.41,14.23,8.08,0,12.45-5.39,12.45-14V228.7h9.36v28.68c0,13-8.76,23.2-21.81,23.2"/></clipPath><clipPath id="clip-path-saegus-logo-4" transform="translate(-41.69 -155.23)"><rect class="cls-logo-saegus-2" x="283.31" width="281" height="296"/></clipPath><clipPath id="clip-path-saegus-logo-5" transform="translate(-41.69 -155.23)"><path class="cls-logo-saegus-1" d="M442.13,227.77a25,25,0,0,0,0,50A25.77,25.77,0,0,0,458,272.38c-.21,5-1.91,8.75-5.08,11.19-5,3.88-13.62,4.36-24.83,1.41l-2.32,8.81A59.89,59.89,0,0,0,440.92,296c8.58,0,14.11-2.54,17.54-5.18,5.66-4.36,8.65-11.09,8.65-19.46V252.86c0-12.46-8.86-25.09-25-25.09m.78,40.93c-9.33,0-16.64-6.76-16.64-15.4,0-8.07,6.09-16.41,16.29-16.41,10.66,0,15.43,8,15.43,16a15.49,15.49,0,0,1-15.08,15.84"/></clipPath><clipPath id="clip-path-saegus-logo-7" transform="translate(-41.69 -155.23)"><path class="cls-logo-saegus-1" d="M304.92,280.88c-6.65,0-14.64-2.46-21.35-6.6l4.78-7.76a33.77,33.77,0,0,0,16.57,5.25c11.8,0,11.8-4.72,11.8-7,0-1.76,0-4.41-12.07-6.66-9.72-1.81-20.09-4.68-20.09-15.94a13.1,13.1,0,0,1,6.9-11.4c8.12-4.74,21-3.48,32.78,3.2l-4.49,7.93c-10.2-5.78-19.44-5.74-23.7-3.26-2.37,1.39-2.37,3-2.37,3.53,0,2.16,0,4.63,12.64,7,6.33,1.18,19.52,3.63,19.52,15.62,0,6-2.72,16.1-20.92,16.1"/></clipPath><clipPath id="clip-path-saegus-logo-9" transform="translate(-41.69 -155.23)"><path class="cls-logo-saegus-1" d="M543.17,280.88c-6.66,0-14.64-2.46-21.35-6.6l4.77-7.76a33.83,33.83,0,0,0,16.58,5.25c11.8,0,11.8-4.72,11.8-7,0-1.76,0-4.42-12.07-6.66-9.72-1.81-20.09-4.68-20.09-15.94a13.08,13.08,0,0,1,6.9-11.4c8.12-4.74,21-3.48,32.78,3.2L558,241.91c-10.21-5.78-19.44-5.74-23.7-3.26-2.37,1.39-2.37,3-2.37,3.53,0,2.17,0,4.63,12.63,7,6.34,1.18,19.53,3.63,19.53,15.62,0,6-2.72,16.1-20.92,16.1"/></clipPath><clipPath id="clip-path-saegus-logo-11" transform="translate(-41.69 -155.23)"><path class="cls-logo-saegus-1" d="M390.45,271.82c-5.45,0-13.39-2.44-13.79-12.88l19,0c11.21,0,17.9-5.76,17.9-14.73,0-7.93-6.55-15.95-19.05-15.95-9.63,0-17.25,3.59-21.94,9.7v0c-3.84-6.3-10.34-9.74-19.08-9.74-6.33,0-13.89,2.16-20.74,5.91l4.37,8c5.48-3,11.6-4.79,16.37-4.79,5.45,0,13.25,2.25,13.79,12.92h-19c-11.21,0-17.9,5.76-17.9,14.73,0,7.93,6.54,15.95,19.05,15.95,9.62,0,17.24-3.54,21.93-9.66v0c3.85,6.3,10.35,9.69,19.09,9.69,6.32,0,13.88-2.16,20.74-5.91l-4.38-8c-5.48,3-11.59,4.79-16.36,4.79m4-34.48c6.82,0,9.93,3.54,9.93,6.83,0,1.56,0,6-8.78,6l-18.62,0c2.62-11.09,13.75-12.83,17.47-12.83m-45.06,34.53c-6.83,0-9.94-3.55-9.94-6.84,0-1.56,0-5.95,8.79-5.95l18.62,0c-2.63,11.09-13.75,12.83-17.47,12.83"/></clipPath></defs><title>logo-saegus</title><g id="Calque_2" data-name="Calque 2"><g id="Calque_1-2" data-name="Calque 1"><g class="cls-logo-saegus-3"><g class="cls-logo-saegus-4"><rect class="cls-logo-saegus-5" width="199.78" height="199.78"/></g></g><g class="cls-logo-saegus-6"><g class="cls-logo-saegus-7"><rect class="cls-logo-saegus-5" x="425.58" y="68.47" width="55.58" height="61.88"/></g></g><g class="cls-logo-saegus-8"><g class="cls-logo-saegus-7"><rect class="cls-logo-saegus-5" x="370.47" y="67.54" width="59.95" height="78.2"/></g></g><g class="cls-logo-saegus-9"><g class="cls-logo-saegus-7"><rect class="cls-logo-saegus-5" x="236.88" y="67.71" width="52.27" height="62.95"/></g></g><g class="cls-logo-saegus-10"><g class="cls-logo-saegus-7"><rect class="cls-logo-saegus-5" x="475.13" y="67.71" width="52.27" height="62.95"/></g></g><g class="cls-logo-saegus-11"><g class="cls-logo-saegus-7"><rect class="cls-logo-saegus-5" x="283.69" y="67.99" width="93.16" height="62.72"/></g></g></g></g></svg>